<?xml version="1.0" encoding="utf-8"?>
<!-- Svg Vector Icons : http://www.onlinewebfonts.com/icon -->
<!DOCTYPE svg PUBLIC "-//W3C//DTD SVG 1.1//EN" "http://www.w3.org/Graphics/SVG/1.1/DTD/svg11.dtd">
<svg version="1.1" xmlns="http://www.w3.org/2000/svg" xmlns:xlink="http://www.w3.org/1999/xlink" x="0px" y="0px" viewBox="0 0 256 256" enable-background="new 0 0 256 256" xml:space="preserve">
<metadata> Svg Vector Icons : http://www.onlinewebfonts.com/icon </metadata>
<g><g><g><path fill="#000000" d="M115.3,13.2C55.2,19.9,10,68.9,10,127.7c0,13.7,1.6,24.3,5.7,36.1c6.1,18.2,15.9,33.4,30,46.9c40.2,38.4,102.1,43.7,148.6,12.8c21.7-14.5,37.7-35.2,45.8-59.3c15.8-47.2-0.6-98.2-41.2-128.3C175.8,18.7,143.7,10,115.3,13.2z M141.1,28.2c53.1,6.7,92.5,52.9,89.6,105.1c-1.4,25.1-11.9,48-30,65.6c-13.3,12.9-28.9,21.8-46.6,26.6c-8.5,2.3-11.1,2.6-26,2.6c-14.5,0.1-17.6-0.2-25-2.2c-37.4-9.8-65.3-37-75.3-73.6c-1.7-6-2.1-10-2.1-23.8c0-14.3,0.3-17.6,2.1-24.2C36,73.8,55.4,50.7,84.1,37.1C101.6,28.8,121.3,25.8,141.1,28.2z"/><path fill="#000000" d="M74.3,88.7c-2.8,3.7-5.4,6.6-5.8,6.6c-0.3,0-1.8-1.3-3.3-2.8c-1.5-1.6-3.2-2.8-3.8-2.8c-1.3,0-5.2,4-5.2,5.3c0,0.5,2.9,3.8,6.5,7.4l6.4,6.4l7.8-9.8c4.3-5.3,8.3-10.3,8.8-11c1.1-1.4-2.6-5.9-4.9-5.9C80.1,82.2,77.2,85.1,74.3,88.7z"/><path fill="#000000" d="M97.5,97.4c-2,2.7-1.9,4.8,0.2,6.7c1.6,1.4,6.2,1.6,46.8,1.6c39.6,0,45.1-0.2,46.4-1.5c2-2,1.9-5.4-0.2-7.3c-1.6-1.4-6.2-1.6-46.8-1.6h-45L97.5,97.4z"/><path fill="#000000" d="M74.2,122.3l-5.9,7.2l-3.2-3.5c-2.9-3.2-3.3-3.4-5.2-2.2c-4.5,3-4.3,4,2.1,10.9c3.3,3.5,6.4,6.5,7,6.6c0.9,0.2,14.6-16.2,17-20.3c0.6-1,0.2-2.1-1.7-3.7c-1.4-1.2-2.9-2.2-3.4-2.2S77.4,118.4,74.2,122.3z"/><path fill="#000000" d="M97.9,126.5c-2.4,2.4-2.5,5.1,0,7.6c1.9,1.9,3.1,1.9,52.9,1.9s51,0,52.9-1.9c2.3-2.3,2.4-4.6,0.6-7.2c-1.3-1.7-3.1-1.8-52.9-2.1C100.7,124.6,99.8,124.6,97.9,126.5z"/><path fill="#000000" d="M74.2,155.4l-5.8,7.1l-3.1-3.3c-1.7-1.9-3.5-3.4-4-3.4c-1.3,0-5.3,4.4-4.9,5.5c0.6,1.4,12.1,13.4,12.8,13.4c0.4-0.1,2.9-2.9,5.7-6.4c2.6-3.5,6.4-8.4,8.4-11l3.6-4.5l-2.5-2.3c-1.5-1.2-3-2.3-3.5-2.3C80.4,148.2,77.4,151.4,74.2,155.4z"/><path fill="#000000" d="M97.6,156.5c-2.1,2.3-2,5.2,0.1,7.1c1.6,1.4,5.8,1.6,41,1.6c36.8,0,39.3-0.1,40.7-1.7c2.1-2.3,2-5.2-0.1-7.1c-1.6-1.4-5.8-1.6-41-1.6C101.6,154.8,99,154.9,97.6,156.5z"/></g></g></g>
</svg>