<?xml version="1.0"?>
<svg version="1.1"
    width="100"
    height="55"
    xmlns="http://www.w3.org/2000/svg">
    
    <path stroke="none" stroke-width="0" fill="green"
        d="
        M 7 48 l 87 0
        a 39,39 1 0 0 -86,0
        Z" />
    <path stroke="none" fill="orange"
        d="
        M 7 49 l 87 0
        a 39,39 1 0 0 -86,0
        Z"
        transform-origin="50 48.5"
        transform="rotate(36)"/>
    <path stroke="none" fill="yellow"
        d="
        M 7 49 l 87 0
        a 39,39 1 0 0 -86,0
        Z"
        transform-origin="50 48.5"
        transform="rotate(72)"/>
    <path stroke="none" fill="limegreen"
        d="
        M 7 49 l 87 0
        a 39,39 1 0 0 -86,0
        Z"
        transform-origin="50 48.5"
        transform="rotate(108)"/>
    <path stroke="none" fill="green"
        d="
        M 7 49 l 87 0
        a 39,39 1 0 0 -86,0
        Z"
        transform-origin="50 48.5"
        transform="rotate(144)"/>
    <line x1="7" y1="51" x2="95" y2="51" stroke="white" stroke-width="4px" />
    
    <path 
        stroke="grey"
        stroke-width="1px"
        fill="none"
        d="M 8,48 a 41.5,40.5 1 1 1 85,0 
        Z" />
    <circle cx="49.5" cy="48" r="10" fill="white" />
    <circle cx="49.5" cy="46" r="2" fill="black" />
    
    <path 
        stroke="grey"
        stroke-width="1px"
        fill="none"
        d="M 2,54 a 40.5,44.5 1 1 1 97,0 Z" />
    
</svg>