<?xml version="1.0"?>
		<svg version="1.1" width="30" height="30"
			xmlns="http://www.w3.org/2000/svg">
			<path stroke-width="4" stroke="black" fill="black" stroke-linecap="round" d="M 3,7 A 15,15 0 0 1 11,2" />
			<path stroke-width="4" stroke="black" fill="black" stroke-linecap="round" d="M 17,2 A 15,15 0 0 1 25,7" />
			<path stroke-width="4" stroke="black" fill="black" stroke-linecap="round" d="M 27,13 A 15,15 0 0 1 24,22" />
			<path stroke-width="4" stroke="black" fill="black" stroke-linecap="round" d="M 20,26 A 15,15 0 0 1 8,26" />
			<path stroke-width="4" stroke="black" fill="black" stroke-linecap="round" d="M 4,22 A 15,15 0 0 1 2,13" />
			<path stroke-width="3" stroke="yellow" fill="yellow" stroke-linecap="round" d="M 3,7 A 15,15 0 0 1 11,2" />
			<path stroke-width="3" stroke="yellow" fill="yellow" stroke-linecap="round" d="M 17,2 A 15,15 0 0 1 25,7" />
			<path stroke-width="3" stroke="yellow" fill="yellow" stroke-linecap="round" d="M 27,13 A 15,15 0 0 1 24,22" />
			<path stroke-width="3" stroke="white" fill="white" stroke-linecap="round" d="M 20,26 A 15,15 0 0 1 8,26" />
			<path stroke-width="3" stroke="white" fill="white" stroke-linecap="round" d="M 4,22 A 15,15 0 0 1 2,13" />
		</svg>