<?xml version="1.0"?>
<svg version="1.1" width="30" height="30"
    xmlns="http://www.w3.org/2000/svg">
    <path stroke-width="4" stroke="black" fill="black" stroke-linecap="round" d="M 4.5,8 A 15,15 0 0 1 11,3" />
    <path stroke-width="3" stroke="cyan" fill="cyan" stroke-linecap="round" d="M 4.5,8 A 15,15 0 0 1 11,3" />
    <path stroke-width="4" stroke="black" fill="black" stroke-linecap="round" d="M 19,3.2 A 15,15 0 0 1 25.5,8" />
    <path stroke-width="3" stroke="cyan" fill="cyan" stroke-linecap="round" d="M 19,3.2 A 15,15 0 0 1 25.5,8" />
    <path stroke-width="4" stroke="black" fill="black" stroke-linecap="round" d="M 27.3,13 A 15,15 0 0 1 25.5,22" />
    <path stroke-width="3" stroke="cyan" fill="cyan" stroke-linecap="round" d="M 27.3,13 A 15,15 0 0 1 25.5,22" />
    <path stroke-width="4" stroke="black" fill="black" stroke-linecap="round" d="M 21,26 A 14,15 0 0 1 9,26" />
    <path stroke-width="3" stroke="cyan" fill="cyan" stroke-linecap="round" d="M 21,26 A 14,15 0 0 1 9,26" />
    <path stroke-width="4" stroke="black" fill="black" stroke-linecap="round" d="M 4.5,22 A 15,15 0 0 1 2.7,13" />
    <path stroke-width="3" stroke="cyan" fill="cyan" stroke-linecap="round" d="M 4.5,22 A 15,15 0 0 1 2.7,13" />
</svg>