<?xml version="1.0"?>
<svg version="1.1" width="30" height="30"
    xmlns="http://www.w3.org/2000/svg">
    <path stroke-width="4" stroke="black" fill="none" stroke-linecap="round" d="M 6,6.2 A 13.5,15 0 0 1 24,6.2" />
    <path stroke-width="3" stroke="yellow" fill="none" stroke-linecap="round" d="M 6,6.2 A 13.5,15 0 0 1 24,6.2" />
    <g transform="rotate(120, 15, 15)">
    <path stroke-width="4" stroke="black" fill="none" stroke-linecap="round" d="M 6,6.2 A 13.5,15 0 0 1 24,6.2" />
    <path stroke-width="3" stroke="yellow" fill="none" stroke-linecap="round" d="M 6,6.2 A 13.5,15 0 0 1 24,6.2" />
    </g>
    <g transform="rotate(-120, 15, 15)">
    <path stroke-width="4" stroke="black" fill="none" stroke-linecap="round" d="M 6,6.2 A 13.5,15 0 0 1 24,6.2" />
    <path stroke-width="3" stroke="yellow" fill="none" stroke-linecap="round" d="M 6,6.2 A 13.5,15 0 0 1 24,6.2" />
    </g>
    
</svg>