<?xml version="1.0"?>
<svg version="1.1" width="30" height="30"
    xmlns="http://www.w3.org/2000/svg">
    <path stroke-width="4" stroke="black" fill="none" stroke-linecap="round" d="M 11,3.2 A 15,13 1 0 0 2.5,11.5" />
    <path stroke-width="3" stroke="green" fill="none" stroke-linecap="round" d="M 11,3.2 A 15,13 1 0 0 2.5,11.5" />
    <path stroke-width="4" stroke="black" fill="none" stroke-linecap="round" d="M 2.5,18 A 15,13 1 0 0 11,26.8" />
    <path stroke-width="3" stroke="green" fill="none" stroke-linecap="round" d="M 2.5,18 A 15,13 1 0 0 11,26.8" />

    <path stroke-width="4" stroke="black" fill="none" stroke-linecap="round" d="M 19,3.2 A 15,13 0 0 1 27.5,11.5" />
    <path stroke-width="3" stroke="green" fill="none" stroke-linecap="round" d="M 19,3.2 A 15,13 0 0 1 27.5,11.5" />
    <path stroke-width="4" stroke="black" fill="none" stroke-linecap="round" d="M 27.5,18.5 A 15,13 0 0 1 18.5,26.8" />
    <path stroke-width="3" stroke="green" fill="none" stroke-linecap="round" d="M 27.5,18.5 A 15,13 0 0 1 18.5,26.8" />
</svg>